/* XPM */
static char * alpnum_xpm[] = {
"160 19 13 1",
" 	c None",
".	c #0000FF",
"+	c #202020",
"@	c #000000",
"#	c #C7C3C7",
"$	c #283C38",
"%	c #20B2AE",
"&	c #004941",
"*	c #188A86",
"=	c #B60418",
"-	c #00EB00",
";	c #F7F3FF",
">	c #71E371",
"+++++++++++++++++++++++++++++++++++++++++++++++++++++++++++++++++++++++++++++++.................................................................................",
"+@%%%@++&&&*+*%%%*+*%%%*+*&&&*+*%%%*+*%%%*+*%%%*+*%%%*+*%%%*+++++++++++++++++++.................................................................................",
"+%+++%+&+++%+&+++%+&+++%+%+++%+%+++&+%+++&+&+++%+%+++%+%+++%++++++++++++%++++++..+==+..+--+..+$$+...............................................................",
"+%++%%+&+++%+&+++%+&+++%+%+++%+%+++&+%+++&+&+++%+%+++%+%+++%+++++++%++++%++++++..=;==..-;--..$$$$...............................................................",
"+*&%&*++&&&*+*%%%*++%%%*+*%%%*+*%%%*+*%%%*++&&&*+*%%%*+*%%%*+++++++*+++%+++++++..====..----..$$$$...+%*>........................................................",
"+%%++%+&+++%+%+++&+&+++%+&+++%+&+++%+%+++%+&+++%+%+++%+&+++%+++++++++++%+++++++..+==+..+--+..+$$+...............................................................",
"+%+++%+&+++%+%+++&+&+++%+&+++%+&+++%+%+++%+&+++%+%+++%+&+++%++%%+++%++%++++++++.................................................................................",
"+@%%%@++&&&*+*%%%*+*%%%*++&&&*+*%%%*+*%%%*++&&&*+*%%%*+*%%%*++%%+++*++%++++++++.................................................................................",
"+++++++++++++++++++++++++++++++++++++++++++++++++++++++++++++++++++++++++++++++.................................................................................",
"................................................................................................................................................................",
"++++++++++++++++++++++++++++++++++++++++++++++++++++++++++++++++++++++++++++++++++++++++++++++++++++++++++++++++++++++++++++++++++++++++++++++++++++++++++++++++",
"+&%%%&+*%%%+++%%%*+*%%+++*%%%*+*%%%*+*%%%*+*&&&*++&&&*++&&&*+*&&&*+*&&&++%&&&%+*%%%++*%%%*+*%%%*+*%%%*+*%%%*+*%%%*+*%%%*+*&&&*+*&&&*+*&&&*+*&&&*+*&&&*+*%%%*++++",
"+%+++%+%+++%+%+++&+%++%++%+++&+%+++&+%+++&+%+++%+&+++%+&+++%+%+++%+%+++&+%%+%%+%+++%+%+++%+%+++%+%+++%+%+++%+%+++&+&+%+&+%+++%+%+++%+%+++%+%+++%+%+++%+&+++%++++",
"+%+++%+%+++%+%+++&+%+++%+%+++&+%+++&+%+++&+%+++%+&+++%+&+++%+%++%++%+++&+%+%+%+%+++%+%+++%+%+++%+%+++%+%+++%+%+++&+&+%+&+%+++%+%+++%+%+++%++%+%++%+++%+&++%&++++",
"+*%%%*+*%%%++*&&&++*&&&*+*%%%++*%%%++*&*%*+*%%%*++&&&*++&&&*+*%%%++*&&&++*&&&*+*&&&*+*&&&*+*%%%*+*%&&*+*%%%++*%%%*++&*&++*&&&*+*&&&*+*&&&*+++%+++*%%%*++&%&+++++",
"+%+++%+%+++%+%+++&+%+++%+%+++&+%+++&+%+++%+%+++%+&+++%+&+++%+%+++%+%+++&+%+++%+%+++%+%+++%+%+++&+%+%+%+%+++%+&+++%+&+%+&+%+++%+%+++%+%+%+%++%+%++&+++%+&%++&++++",
"+%+++%+%+++%+%+++&+%+++%+%+++&+%+++&+%+++%+%+++%+&+++%+&+++%+%+++%+%+++&+%+++%+%+++%+%+++%+%+++&+%++%%+%+++%+&+++%+&+%+&+%+++%+%++%++%%+%%+%+++%+&+++%+%+++&++++",
"+*&&&*+*%%%+++%%%*+*%%%++*%%%*+*&&&++*%%%*+*&&&*++&&&*+*%%%*+*&&&*+*%%%*+*&&&*+*&&&*+*%%%*+*&&&++*%%%*+*&&&*+*%%%*++&*&++*%%%%++%%+++*&&&*+*&&&*+*%%%*+*%%%*++++",
"++++++++++++++++++++++++++++++++++++++++++++++++++++++++++++++++++++++++++++++++++++++++++++++++++++++++++++++++++++++++++++++++++++++++++++++++++++++++++++++++",
};
