/* XPM */
static char * norec_xpm[] = {
"6 7 2 1",
" 	c #AEAAAE",
".	c #86828E",
"     .",
" ... .",
".. ...",
".   ..",
".. ...",
" ... .",
"     ."};
