/* XPM */
static char * wmmp3_xpm[] = {
"64 64 7 1",
" 	c None",
".	c #000000000000",
"X	c #AEBAAAAAAEBA",
"o	c #28A228A228A2 s back_color",
"O	c #208120812081",
"+	c #F7DEF3CEFFFF",
"@	c #861782078E38",
"                                                                ",
"                                                                ",
"                                                                ",
"                                                                ",
"    .......................................................X    ",
"    .ooooooooooooooooooooooooooooooooooooooooooooooooooooooX    ",
"    .ooooooooooooooooooooooooooooooooooooooooooooooooooooooX    ",
"    .ooooooooooooooooooooooooooooooooooooooooooooooooooooooX    ",
"    .ooooooooooooooooooooooooooooooooooooooooooooooooooooooX    ",
"    .ooooooooooooooooooooooooooooooooooooooooooooooooooooooX    ",
"    .ooooooooooooooooooooooooooooooooooooooooooooooooooooooX    ",
"    .ooooooooooooooooooooooooooooooooooooooooooooooooooooooX    ",
"    .ooooooooooooooooooooooooooooooooooooooooooooooooooooooX    ",
"    .ooooooooooooooooooooooooooooooooooooooooooooooooooooooX    ",
"    .ooooooooooooooooooooooooooooooooooooooooooooooooooooooX    ",
"    .ooooooooooooooooooooooooooooooooooooooooooooooooooooooX    ",
"    .ooooooooooooooooooooooooooooooooooooooooooooooooooooooX    ",
"    .ooooooooooooooooooooooooooooooooooooooooooooooooooooooX    ",
"    .ooooooooooooooooooooooooooooooooooooooooooooooooooooooX    ",
"    .ooooooooooooooooooooooooooooooooooooooooooooooooooooooX    ",
"    .ooooooooooooooooooooooooooooooooooooooooooooooooooooooX    ",
"    .ooooooooooooooooooooooooooooooooooooooooooooooooooooooX    ",
"    .ooooooooooooooooooooooooooooooooooooooooooooooooooooooX    ",
"    .ooooooooooooooooooooooooooooooooooooooooooooooooooooooX    ",
"    .ooooooooooooooooooooooooooooooooooooooooooooooooooooooX    ",
"    .ooooooooooooooooooooooooooooooooooooooooooooooooooooooX    ",
"    .ooooooooooooooooooooooooooooooooooooooooooooooooooooooX    ",
"    XXXXXXXXXXXXXXXXXXXXXXXXXXXXXXXXXXXXXXXXXXXXXXXXXXXXXXXX    ",
"                                                                ",
"                                                                ",
"                                                                ",
"                                                                ",
"     ......................................................     ",
"     .++++++++++++@++++++++++++@++++++++++++@++++++++++++@X     ",
"     .+XXXXXXXXXXX.+XXXXXXXXXXX.+XXXXXXXXXXX.+XXXXXXXXXXX.X     ",
"     .+X.XXX.XXX.X.+XXX....XXXX.+XXXX.XXXXXX.+X.XXX.XXX.X.X     ",
"     .+X.XX..XX..X.+XXX....XXXX.+XXXX..XXXXX.+X..XX..XX.X.X     ",
"     .+X.X...X...X.+XXX....XXXX.+XXXX...XXXX.+X...X...X.X.X     ",
"     .+X.........X.+XXX....XXXX.+XXXX....XXX.+X.........X.X     ",
"     .+X.X...X...X.+XXX....XXXX.+XXXX...XXXX.+X...X...X.X.X     ",
"     .+X.XX..XX..X.+XXX....XXXX.+XXXX..XXXXX.+X..XX..XX.X.X     ",
"     .+X.XXX.XXX.X.+XXX....XXXX.+XXXX.XXXXXX.+X.XXX.XXX.X.X     ",
"     .+XXXXXXXXXXX.+XXXXXXXXXXX.+XXXXXXXXXXX.+XXXXXXXXXXX.X     ",
"     .@............@............@............@............X     ",
"     XXXXXXXXXXXXXXXXXXXXXXXXXXXXXXXXXXXXXXXXXXXXXXXXXXXXXX     ",
"                                                                ",
"    ..........................    ..........................    ",
"    .+++++++++++++++++++++++@X    .+++++++++++++++++++++++@X    ",
"    .+XXXXXXXXXXXXXXXXXXXXXX.X    .+XXXXXXXXXXXXXXXXXXXXXX.X    ",
"    .+X..XX..X..XX..XX.XX....X    .+XX.XX.X.X.X.X..X.XX..X.X    ",
"    .+X.X.X.XX.X.X.XX.X.XX.X.X    .+X.X.X.X.X.X.X.XX.XX.XX.X    ",
"    .+X.X.X.XX.X.X.XX.X.XX.X.X    .+X.XXX.X.X.X.X.XX.XX.XX.X    ",
"    .+X..XX..X..XX..X...XX.X.X    .+XX.XX...X.X.X..X.XX..X.X    ",
"    .+X.X.X.XX.XXX.XX.X.XX.X.X    .+XXX.X.X.X.X.X.XX.XX.XX.X    ",
"    .+X.X.X.XX.XXX.XX.X.XX.X.X    .+X.X.X.X.X.X.X.XX.XX.XX.X    ",
"    .+X.X.X..X.XXX..X.X.XX.X.X    .+XX.XX.X.XX.XX.XX..X..X.X    ",
"    .+XXXXXXXXXXXXXXXXXXXXXX.X    .+XXXXXXXXXXXXXXXXXXXXXX.X    ",
"    .@.......................X    .@.......................X    ",
"    XXXXXXXXXXXXXXXXXXXXXXXXXX    XXXXXXXXXXXXXXXXXXXXXXXXXX    ",
"                                                                ",
"                                                                ",
"                                                                ",
"                                                                ",
"                                                                "};
